<?xml version="1.0" encoding="UTF-8"?> <!-- Generator: Adobe Illustrator 25.0.0, SVG Export Plug-In . SVG Version: 6.00 Build 0) --> <svg xmlns="http://www.w3.org/2000/svg" xmlns:xlink="http://www.w3.org/1999/xlink" version="1.1" id="Laag_1" x="0px" y="0px" viewBox="0 0 283.5 68.4" style="enable-background:new 0 0 283.5 68.4;" xml:space="preserve"> <style type="text/css"> .st0{fill:#FFFFFF;} .st1{fill:#1D3365;} .st2{fill:#15AF97;} </style> <g id="white"> <circle class="st0" cx="194" cy="34.2" r="33"></circle> </g> <g id="blue"> <g> <path class="st1" d="M194,0c-18.9,0-34.2,15.3-34.2,34.2s15.3,34.2,34.2,34.2s34.2-15.3,34.2-34.2S212.9,0,194,0z M173.8,36.8 v-5.2c1.4,0,2.6-1.2,2.6-2.6s-1.2-2.6-2.6-2.6v-5.2c4.3,0,7.8,3.5,7.8,7.8C181.7,33.2,178.2,36.8,173.8,36.8z M197.7,23.1 c0,2-1.6,3.6-3.6,3.6s-3.6-1.6-3.6-3.6h-7.3c0-6,4.9-10.9,10.9-10.9S205,17.1,205,23.1H197.7z M214.2,26.3c-1.4,0-2.6,1.2-2.6,2.6 s1.2,2.6,2.6,2.6v5.2c-4.3,0-7.8-3.5-7.8-7.8s3.5-7.8,7.8-7.8V26.3z"></path> </g> <g> <rect x="239" y="14.6" class="st1" width="9" height="39.9"></rect> <polygon class="st1" points="252.8,14.6 252.8,22.2 263.6,22.2 263.6,54.5 272.6,54.5 272.6,22.2 283.5,22.2 283.5,14.6 "></polygon> </g> </g> <g id="green"> <g> <path class="st2" d="M31.1,53.5c-1.6,0.8-5.4,1.7-10.2,1.7C7.1,55.2,0,46.5,0,35.2C0,21.6,9.7,14,21.8,14c4.7,0,8.2,0.9,9.8,1.8 l-1.9,7.1c-1.8-0.8-4.3-1.5-7.6-1.5c-7.1,0-12.7,4.3-12.7,13.2c0,8,4.7,13,12.7,13c2.8,0,5.7-0.5,7.6-1.3L31.1,53.5z"></path> <path class="st2" d="M46.1,14.6V30H61V14.6h9v39.9h-9V37.8H46.1v16.7h-9V14.6H46.1z"></path> <path class="st2" d="M86.9,14.6v39.9h-9V14.6H86.9z"></path> <path class="st2" d="M118.5,37.7h-14.7v9.5h16.4v7.4H94.8v-40h24.6V22h-15.6v8.3h14.7V37.7z"></path> <path class="st2" d="M126.4,14.6h24.3V22h-15.3v9.1h14.3v7.3h-14.3v16h-9C126.4,54.4,126.4,14.6,126.4,14.6z"></path> </g> <g> <path class="st2" d="M173.8,36.8v-5.2c1.4,0,2.6-1.2,2.6-2.6s-1.2-2.6-2.6-2.6v-5.2c-4.3,0-7.8,3.5-7.8,7.8 C166,33.2,169.5,36.8,173.8,36.8z"></path> <path class="st2" d="M214.2,31.5v5.2c4.3,0,7.8-3.5,7.8-7.8s-3.5-7.8-7.8-7.8v5.2c-1.4,0-2.6,1.2-2.6,2.6 C211.6,30.4,212.8,31.5,214.2,31.5z"></path> <path class="st2" d="M194.1,34c6,0,10.9-4.9,10.9-10.9h-7.3c0,2-1.6,3.6-3.6,3.6s-3.6-1.6-3.6-3.6h-7.3 C183.2,29.1,188.1,34,194.1,34z"></path> <path class="st2" d="M214.2,37.9c-3,0-5.7,1.5-7.7,3.9c2.9,3.8,4.6,8.9,4.6,14.4v3.9c5.7-3.8,10.1-9.4,12.4-16 C221.5,40.4,218.1,37.9,214.2,37.9z"></path> <path class="st2" d="M173.8,37.9c-3.9,0-7.3,2.5-9.3,6.3c2.3,6.6,6.7,12.2,12.4,16v-3.9c0-5.6,1.8-10.7,4.6-14.4 C179.5,39.4,176.8,37.9,173.8,37.9z"></path> <path class="st2" d="M194,36.5c-8.6,0-15.6,8.8-15.6,19.7v4.9c4.6,2.7,9.9,4.2,15.6,4.2c5.7,0,11-1.5,15.6-4.2v-4.9 C209.6,45.3,202.7,36.5,194,36.5z"></path> </g> </g> </svg> 